<svg width="1200" height="1200" xmlns="http://www.w3.org/2000/svg" xmlns:svg="http://www.w3.org/2000/svg" version="1.1">
 <g class="layer">
  <title>Camera ok</title>
  <path d="m148,1007c2,-1 642,9 645,6c3,-3 34,-45 34,-46c0,-1 11,-124 11,-124c0,0 237,110 237,109c0,-1 3,-419 3,-419c0,0 -235,108 -235,108c0,0 -24,-155 -25,-155c-1,0 -131,-18 -131,-18c0,0 99,-88 99,-88c0,0 -2,-127 -2,-127c0,0 -96,-75 -98,-75c-2,0 -117,15 -120,15c-3,0 -334,51 -336,52c-2,1 -70,59 -70,61c0,2 0,83 0,83c0,0 71,79 70,79c-1,0 -75,10 -76,10c-1,0 -41,69 -41,69c0,0 14,433 14,433c0,0 21,27 21,27z" fill="#FFFF00" id="svg_2" opacity="0.2"/>
  <path d="m179.6,1042.2l593,0c43.801,0 79.602,-35.602 79.602,-79.602l0,-94.199l219,109.4c2.5977,1.6016 5.7969,2.2031 8.7969,2.2031c3.6016,0 7.3984,-1 10.602,-3c5.7969,-3.6016 9.3984,-10 9.3984,-17l0,-426.8c0,-7 -3.6016,-13.398 -9.3984,-17c-6,-3.6016 -13.199,-4 -19.398,-0.80078l-219.2,109.2l0,-94.398c0,-43.801 -35.602,-79.602 -79.602,-79.602l-15.199,0c35.801,-30.602 58.602,-76 58.602,-126.6c0,-91.801 -74.801,-166.6 -166.6,-166.6c-6.8008,0 -13.398,0.60156 -20,1.3984l-0.60156,0l-5,0.80078c-3.3984,0.60156 -6.6016,1 -9.8008,1.8008l-369.8,64.402l-0.19922,0c-61.199,12.199 -107.6,66.398 -107.6,131.2c0,36.801 14.801,70 39,94.199c-41.801,2.4023 -75.199,36.801 -75.199,79.199l0,432.4c0,43.805 35.602,79.402 79.602,79.402l-0.00532,-0.0033zm880.4,-476.8l0,362.2l-208,-104l0,-154.4l208,-103.8zm-712.2,-317l173,-30c-23.801,28.801 -38,65.801 -38,106c0,50.602 22.801,96 58.602,126.6l-176,0c23.801,-24.199 38.602,-57.199 38.602,-93.801c-0.20312,-44.801 -22.402,-84.398 -56.203,-108.8l-0.001,0.001zm-44,242.4l344.6,0l0,62.602c0,19.199 -15.602,34.801 -34.801,34.801l-275,-0.00391c-19.199,0 -34.801,-15.602 -34.801,-34.801l0.002,-62.59809zm472,-166.6c0,69.801 -56.801,126.6 -126.6,126.6s-126.6,-56.801 -126.6,-126.6c0,-60.199 42.398,-110.8 98.801,-123.4l11.199,-2c5.3984,-0.80078 11,-1.1992 16.602,-1.1992c69.801,0.19922 126.6,56.797 126.6,126.6l-0.002,-0.0008zm-505.8,-60.801c51.602,0 93.801,42 93.801,93.801s-42,93.801 -93.801,93.801s-93.801,-42 -93.801,-93.801s42.199,-93.801 93.801,-93.801zm-130,267c0,-21.801 17.801,-39.602 39.602,-39.602l84.199,0l0,62.602c0,41.199 33.602,74.801 74.801,74.801l275,0c41.199,0 74.801,-33.602 74.801,-74.801l0,-62.602l84.199,0c21.801,0 39.602,17.801 39.602,39.602l0,432.4c0,21.801 -17.801,39.602 -39.602,39.602l-593,0c-21.801,-0.19922 -39.602,-17.797 -39.602,-39.598l0,-432.404z" id="svg_1"/>
 </g>
</svg>