<svg xmlns="http://www.w3.org/2000/svg" xmlns:xlink="http://www.w3.org/1999/xlink" width="100" height="100" viewBox="0 0 100 100"><g transform="translate(50 50) scale(0.69 -0.69) rotate(-45) translate(-50 -50)" style="fill:#1a1a1a"><svg xmlns="http://www.w3.org/2000/svg" viewBox="0 0 33 33" fill="none" x="0px" y="0px"><path d="M15.2714 17.914L17.2187 31.7929C17.2807 32.2349 17.6283 32.5825 18.0703 32.6445C18.1183 32.6515 18.1649 32.6542 18.2109 32.6542C18.6029 32.6542 18.963 32.4255 19.125 32.0605L32.4453 2.06047C32.6123 1.68147 32.5293 1.23918 32.2363 0.947185C31.9443 0.654185 31.502 0.576107 31.125 0.742107L1.12496 14.0624C0.717963 14.2444 0.478979 14.6722 0.540979 15.1152C0.602979 15.5572 0.949542 15.9047 1.39254 15.9667L15.2714 17.914ZM29.5625 3.62297L18.7148 28.0546L17.1464 16.8905C17.0844 16.4485 16.7379 16.101 16.2949 16.039L5.13082 14.4706L29.5625 3.62297Z" fill="black"></path></svg></g></svg>