<svg xmlns="http://www.w3.org/2000/svg" xmlns:xlink="http://www.w3.org/1999/xlink" width="100" height="100" viewBox="0 0 100 100"><g><rect width="100%" height="100%" fill="rgba(1,1,1,0)"></rect><g transform="translate(50 50) scale(0.69 0.69) rotate(0) translate(-50 -50)" style="fill:#000000"><svg fill="#000000" xmlns="http://www.w3.org/2000/svg" viewBox="0 0 32 32" x="0px" y="0px"><title>Artboard 17</title><g data-name="Layer 2"><path d="M26.09,7.51l-11-2h-.15a.48.48,0,0,0-.23.09h0l-4,3,0,0a.49.49,0,0,0-.1.12l0,0a.49.49,0,0,0,0,.21V23.5H8a.5.5,0,0,0-.5.5v1.5H6a.5.5,0,0,0,0,1H16a.5.5,0,0,0,0-1H14.5V24a.5.5,0,0,0-.5-.5H11.5V10l3.2,2.4h0a.5.5,0,0,0,.28.09h.09l11-2A.5.5,0,0,0,26.5,10V8A.5.5,0,0,0,26.09,7.51ZM13.5,25.5h-5v-1h5Zm2-18.9,2,.37s0,0,0,0v4s0,0,0,0l-2,.37Zm3,.55,2,.36v3l-2,.36Zm3,.55L23,8V10l-1.5.27ZM14.5,11,11.83,9,14.5,7Zm11-1.42L24,9.86V8.14l1.5.27Z"></path></g></svg></g></g></svg>